<svg xmlns="http://www.w3.org/2000/svg" width="560" height="300" viewBox="0 0 560 300" font-family="sans-serif"><rect width="560" height="300" fill="#fff"/><text x="10" y="20" font-size="13" text-anchor="start" fill="#333" font-weight="bold">Top 10 run scorers</text><text x="91" y="47" font-size="10" text-anchor="end" fill="#333">V Kohli</text><rect x="97" y="34" width="393" height="16" fill="#1f6f8b"/><text x="494" y="47" font-size="9" text-anchor="start" fill="#333">8,004</text><text x="91" y="69" font-size="10" text-anchor="end" fill="#333">S Dhawan</text><rect x="97" y="56" width="333" height="16" fill="#1f6f8b"/><text x="433" y="69" font-size="9" text-anchor="start" fill="#333">6,769</text><text x="91" y="91" font-size="10" text-anchor="end" fill="#333">RG Sharma</text><rect x="97" y="78" width="326" height="16" fill="#1f6f8b"/><text x="426" y="91" font-size="9" text-anchor="start" fill="#333">6,628</text><text x="91" y="113" font-size="10" text-anchor="end" fill="#333">DA Warner</text><rect x="97" y="100" width="323" height="16" fill="#1f6f8b"/><text x="423" y="113" font-size="9" text-anchor="start" fill="#333">6,565</text><text x="91" y="135" font-size="10" text-anchor="end" fill="#333">SK Raina</text><rect x="97" y="122" width="272" height="16" fill="#1f6f8b"/><text x="372" y="135" font-size="9" text-anchor="start" fill="#333">5,528</text><text x="91" y="157" font-size="10" text-anchor="end" fill="#333">MS Dhoni</text><rect x="97" y="144" width="258" height="16" fill="#1f6f8b"/><text x="358" y="157" font-size="9" text-anchor="start" fill="#333">5,243</text><text x="91" y="179" font-size="10" text-anchor="end" fill="#333">AB de Villiers</text><rect x="97" y="166" width="254" height="16" fill="#1f6f8b"/><text x="354" y="179" font-size="9" text-anchor="start" fill="#333">5,162</text><text x="91" y="201" font-size="10" text-anchor="end" fill="#333">CH Gayle</text><rect x="97" y="188" width="244" height="16" fill="#1f6f8b"/><text x="345" y="201" font-size="9" text-anchor="start" fill="#333">4,965</text><text x="91" y="223" font-size="10" text-anchor="end" fill="#333">RV Uthappa</text><rect x="97" y="210" width="243" height="16" fill="#1f6f8b"/><text x="344" y="223" font-size="9" text-anchor="start" fill="#333">4,952</text><text x="91" y="245" font-size="10" text-anchor="end" fill="#333">KD Karthik</text><rect x="97" y="232" width="238" height="16" fill="#1f6f8b"/><text x="339" y="245" font-size="9" text-anchor="start" fill="#333">4,842</text></svg>